HIERARCHY
ROOT Hips
{
	OFFSET 0.00 0.00 0.00
	CHANNELS 6 Xposition Yposition Zposition Xrotation Yrotation Zrotation
	JOINT RightUpLeg
	{
		OFFSET -3.76699 0.00000 0.00000
		CHANNELS 3 Xrotation Yrotation Zrotation
		JOINT RightLeg
		{
			OFFSET 0.00000 -18.01768 0.00000
			CHANNELS 3 Xrotation Yrotation Zrotation
			JOINT RightFoot
			{
				OFFSET 0.00000 -16.88108 0.00000
				CHANNELS 3 Xrotation Yrotation Zrotation
				JOINT RightToeBase
				{
					OFFSET 0.00000 -1.49359 5.57418
					CHANNELS 3 Xrotation Yrotation Zrotation
					End Site
					{
						OFFSET 0.00000 0.00000 2.95275
					}
				}
			}
		}
	}
	JOINT LeftUpLeg
	{
		OFFSET 3.76699 0.00000 0.00000
		CHANNELS 3 Xrotation Yrotation Zrotation
		JOINT LeftLeg
		{
			OFFSET 0.00000 -18.01768 0.00000
			CHANNELS 3 Xrotation Yrotation Zrotation
			JOINT LeftFoot
			{
				OFFSET 0.00000 -16.88108 0.00000
				CHANNELS 3 Xrotation Yrotation Zrotation
				JOINT LeftToeBase
				{
					OFFSET 0.00000 -1.49359 5.57418
					CHANNELS 3 Xrotation Yrotation Zrotation
					End Site
					{
						OFFSET 0.00000 0.00000 2.95275
					}
				}
			}
		}
	}
	JOINT Spine
	{
		OFFSET 0.00000 7.77970 0.00000
		CHANNELS 3 Xrotation Yrotation Zrotation
		JOINT RightShoulder
		{
			OFFSET 0.00000 10.94176 0.00000
			CHANNELS 3 Xrotation Yrotation Zrotation
			JOINT RightArm
			{
				OFFSET -7.70894 0.00000 0.00000
				CHANNELS 3 Xrotation Yrotation Zrotation
				JOINT RightForeArm
				{
					OFFSET -11.52135 0.00000 0.00000
					CHANNELS 3 Yrotation Zrotation Xrotation
					JOINT RightHand
					{
						OFFSET -10.17590 0.00000 0.00000
						CHANNELS 3 Xrotation Yrotation Zrotation
						End Site
						{
							OFFSET -3.93700 0.00000 0.00000
						}
						JOINT RightHandThumb1
						{
							OFFSET 0.00000 0.00000 0.00000
							CHANNELS 3 Xrotation Zrotation Yrotation
							End Site
							{
								OFFSET 0.00000 0.00000 3.93700
							}
						}
					}
				}
			}
		}
		JOINT LeftShoulder
		{
			OFFSET 0.00000 10.94176 0.00000
			CHANNELS 3 Xrotation Yrotation Zrotation
			JOINT LeftArm
			{
				OFFSET 7.70894 0.00000 0.00000
				CHANNELS 3 Xrotation Yrotation Zrotation
				JOINT LeftForeArm
				{
					OFFSET 11.52135 0.00000 0.00000
					CHANNELS 3 Yrotation Zrotation Xrotation
					JOINT LeftHand
					{
						OFFSET 10.17590 0.00000 0.00000
						CHANNELS 3 Xrotation Yrotation Zrotation
						End Site
						{
							OFFSET 3.93700 0.00000 0.00000
						}
						JOINT LeftHandThumb1
						{
							OFFSET 0.00000 0.00000 0.00000
							CHANNELS 3 Xrotation Zrotation Yrotation
							End Site
							{
								OFFSET 0.00000 0.00000 3.93700
							}
						}
					}
				}
			}
		}
		JOINT Head
		{
			OFFSET 0.00000 16.64604 0.00000
			CHANNELS 3 Xrotation Yrotation Zrotation
			End Site
			{
				OFFSET 0.00000 4.52755 0.00000
			}
		}
	}
}
MOTION
Frames:	22
Frame Time: 0.008333
-2.4185 39.4329 9.3087 46.1765 -42.2749 -14.3805 8.8725 19.5358 -17.2027 144.9324 -0.0000 -0.0000 26.3813 -6.7022 27.0973 0.0664 -0.0000 -0.0000 -43.9880 -16.0128 35.6549 15.2518 -0.0000 -0.0000 -8.4244 26.7259 -4.3267 11.6228 -0.0000 -0.0000 17.3822 7.5981 2.9629 41.7448 -23.8894 12.8272 -29.2394 -8.9975 79.7778 10.5720 -0.0000 39.8004 5.8491 -15.0891 21.4806 33.1476 -0.0000 -26.2537 -10.2584 7.7567 50.4530 -58.9365 -18.0414 -13.6909 -15.7496 0.0000 -2.8277 3.9237 -9.7582 22.0321 32.8623 0.0000 24.3270 -24.8237 12.5705 17.3278
-2.4455 39.4691 9.2961 46.0187 -42.3400 -14.8306 8.9949 19.8100 -17.0605 144.7718 -0.0000 -0.0000 26.1677 -6.8264 27.4210 0.1458 -0.0000 -0.0000 -44.2431 -15.6796 35.8447 15.1952 -0.0000 -0.0000 -8.2003 26.7847 -3.9471 11.2725 -0.0000 -0.0000 17.6987 7.7609 3.1986 41.6796 -23.8440 12.8294 -29.2476 -9.2601 79.6799 10.8096 -0.0000 39.9441 5.7045 -15.2053 20.8503 33.1476 -0.0000 -26.2537 -10.2926 7.6486 50.5183 -58.4912 -17.9028 -13.4055 -15.6750 0.0000 -2.5950 3.7406 -9.5654 21.4767 32.8623 0.0000 24.3270 -24.9262 12.9286 17.5791
-2.4674 39.5017 9.2843 45.8798 -42.3184 -15.1960 9.2516 20.0260 -17.0247 144.5351 -0.0000 -0.0000 25.9120 -7.2590 27.6719 -0.0085 0.0000 -0.0000 -44.6006 -15.3264 35.8983 15.1893 -0.0000 -0.0000 -7.9763 26.7856 -3.6089 11.1323 -0.0000 -0.0000 18.0154 7.7233 3.3670 41.5871 -23.7836 12.7940 -29.2497 -9.4587 79.5734 11.1376 0.0000 40.4117 5.5728 -15.3359 20.2502 33.1476 -0.0000 -26.2537 -10.3152 7.5707 50.5872 -58.0331 -17.7799 -13.0739 -15.6116 0.0000 -2.5247 3.6252 -9.4915 21.0169 32.8623 0.0000 24.3270 -24.9762 13.2675 17.8932
-2.4921 39.5367 9.2703 45.8029 -42.3114 -15.4916 9.5267 20.2383 -17.0132 144.2747 -0.0000 -0.0000 25.5956 -7.9773 27.7877 0.2269 -0.0000 -0.0000 -45.0602 -14.8879 35.9389 15.1963 -0.0000 -0.0000 -7.7093 26.7108 -3.3673 10.8433 -0.0000 -0.0000 18.2405 7.6265 3.4688 41.5709 -23.7006 12.8050 -29.2943 -9.5025 79.4311 11.4851 0.0000 41.0442 5.4634 -15.4931 19.7003 33.1476 -0.0000 -26.2537 -10.2818 7.5707 50.6745 -57.8573 -17.6491 -12.8585 -15.5342 -0.0000 -2.4671 3.6327 -9.5747 20.8913 32.8623 0.0000 24.3270 -24.9493 13.5139 18.3547
-2.5089 39.5641 9.2589 45.7988 -42.2043 -15.6674 9.8899 20.3468 -17.1082 143.9598 -0.0000 -0.0000 25.2836 -8.7946 27.6546 0.4299 -0.0000 -0.0000 -45.5664 -14.4909 35.8411 15.2033 -0.0000 -0.0000 -7.4304 26.6624 -3.1692 10.9597 -0.0000 -0.0000 18.4087 7.3723 3.5442 41.5266 -23.6345 12.7874 -29.3417 -9.5054 79.2331 11.7667 0.0000 41.7890 5.3535 -15.4826 19.3434 33.1476 -0.0000 -26.2537 -10.2874 7.5414 50.7999 -57.7659 -17.4217 -12.7895 -15.5903 0.0000 -2.5776 3.6767 -9.5446 21.1829 32.8623 0.0000 24.3270 -24.8653 13.7132 18.7993
-2.5278 39.5925 9.2484 45.8091 -42.1087 -15.8216 10.2604 20.4457 -17.1978 143.6346 -0.0000 -0.0000 25.0835 -9.7136 27.6066 0.7359 -0.0000 -0.0000 -46.0516 -14.0477 35.7673 15.1392 -0.0000 -0.0000 -7.2132 26.4894 -3.1653 10.8543 -0.0000 -0.0000 18.5244 7.1511 3.5917 41.5199 -23.5722 12.8013 -29.4145 -9.4949 78.9901 11.9965 0.0000 42.4932 5.3025 -15.4827 19.1714 33.1476 -0.0000 -26.2537 -10.2943 7.4786 50.9071 -57.7460 -17.2301 -12.7958 -15.6648 0.0000 -2.8611 3.7946 -9.5033 21.8861 32.8623 0.0000 24.3270 -24.6928 13.7945 19.2445
-2.5494 39.6182 9.2402 45.8213 -42.0242 -15.9610 10.7017 20.5945 -17.3120 143.3000 -0.0000 -0.0000 24.9060 -10.3624 27.3842 0.8654 -0.0000 -0.0000 -46.3586 -13.7015 35.7334 14.9533 -0.0000 -0.0000 -6.9296 26.4131 -2.8887 10.6416 -0.0000 -0.0000 18.5977 6.9282 3.6223 41.5133 -23.5115 12.8019 -29.4848 -9.4816 78.7024 12.1653 -0.0000 43.0012 5.2719 -15.3727 19.1914 33.1476 -0.0000 -26.2537 -10.2737 7.4324 50.9829 -57.9252 -17.0534 -12.8884 -15.7675 0.0000 -3.2516 3.9879 -9.6104 22.6645 32.8623 0.0000 24.3270 -24.4751 13.7943 19.6759
-2.5712 39.6425 9.2337 45.8424 -41.9989 -16.0888 11.1424 20.8119 -17.4342 142.9893 -0.0000 -0.0000 24.7726 -10.7985 27.1161 0.9409 -0.0000 -0.0000 -46.5386 -13.3907 35.7886 14.6704 -0.0000 -0.0000 -6.7111 26.3264 -2.8259 10.5279 -0.0000 -0.0000 18.6169 6.7803 3.6393 41.5657 -23.4560 12.8246 -29.6192 -9.5149 78.3802 12.2630 -0.0000 43.4278 5.2706 -15.2326 19.3468 33.1476 -0.0000 -26.2537 -10.1992 7.4747 51.0217 -58.2819 -16.9689 -13.0729 -15.8286 0.0000 -3.9168 4.2520 -9.8026 23.5904 32.8623 0.0000 24.3270 -24.1875 13.7025 20.0038
-2.5961 39.6667 9.2263 45.8504 -42.0168 -16.2523 11.5845 21.1031 -17.5362 142.6961 -0.0000 -0.0000 24.7115 -10.9860 26.9082 0.9962 -0.0000 -0.0000 -46.5863 -13.1444 35.9592 14.3116 -0.0000 -0.0000 -6.4912 26.1563 -2.8482 10.3425 -0.0000 -0.0000 18.6074 6.6988 3.6831 41.5663 -23.4473 12.7879 -29.7195 -9.5501 78.0713 12.2549 0.0000 43.7921 5.2775 -15.0536 19.5780 33.1476 -0.0000 -26.2537 -10.0956 7.5229 51.0212 -58.6916 -16.8882 -13.2318 -15.9145 -0.0000 -4.4446 4.4408 -10.0133 24.0680 32.8623 0.0000 24.3270 -23.8799 13.5978 20.2618
-2.6203 39.6915 9.2190 45.8583 -42.1052 -16.3871 12.0125 21.4670 -17.6831 142.4201 -0.0000 -0.0000 24.7720 -10.9943 26.8048 0.7125 -0.0000 -0.0000 -46.4947 -12.9562 36.2140 13.8997 -0.0000 -0.0000 -6.2618 26.0398 -3.0248 10.2342 -0.0000 -0.0000 18.5699 6.6878 3.6660 41.4639 -23.4600 12.7205 -29.7131 -9.6104 77.7604 12.2406 0.0000 44.0443 5.3379 -14.9273 19.9369 33.1476 -0.0000 -26.2537 -10.0128 7.5435 51.0060 -58.9913 -16.9309 -13.3382 -15.9328 0.0000 -4.7275 4.6741 -10.4010 24.3645 32.8623 0.0000 24.3270 -23.5820 13.4099 20.4736
-2.6438 39.7159 9.2102 45.8753 -42.1885 -16.5642 12.4275 21.8303 -17.7709 142.1730 -0.0000 -0.0000 24.7467 -10.8760 26.8083 0.9019 -0.0000 -0.0000 -46.2820 -12.9496 36.5477 13.4839 -0.0000 -0.0000 -6.0211 25.9854 -3.4183 10.1294 -0.0000 -0.0000 18.5163 6.6991 3.7371 41.3835 -23.5009 12.6051 -29.7189 -9.6386 77.4798 12.1695 0.0000 44.2260 5.3641 -14.7913 20.1928 33.1476 -0.0000 -26.2537 -9.8987 7.7210 50.9484 -59.4812 -17.0468 -13.5440 -15.8887 0.0000 -4.9446 4.7527 -10.5503 24.4218 32.8623 0.0000 24.3270 -23.2895 13.1997 20.5381
-2.6656 39.7403 9.1983 45.9446 -42.2951 -16.7175 12.7887 22.2122 -17.8698 141.9545 -0.0000 -0.0000 24.7027 -10.6535 26.7908 0.8735 -0.0000 -0.0000 -46.0803 -12.9820 36.9272 13.0749 -0.0000 -0.0000 -5.8224 25.9371 -4.0318 10.2305 -0.0000 -0.0000 18.3982 6.7267 3.8420 41.3150 -23.5756 12.4527 -29.7261 -9.7295 77.2474 12.1132 0.0000 44.3625 5.4159 -14.6284 20.5763 33.1476 -0.0000 -26.2537 -9.7619 7.9812 50.8464 -59.8497 -17.3030 -13.6993 -15.7659 0.0000 -5.2736 4.5989 -10.2332 24.3602 32.8623 0.0000 24.3270 -22.9980 13.0386 20.5242
-2.6926 39.7697 9.1838 46.0104 -42.4746 -16.8800 13.0815 22.6296 -17.9467 141.7782 -0.0000 -0.0000 24.7493 -10.4415 26.8167 0.8861 -0.0000 -0.0000 -45.8932 -12.9318 37.3966 12.6342 -0.0000 -0.0000 -5.5677 25.8179 -4.7066 10.3454 -0.0000 -0.0000 18.2581 6.8305 3.9036 41.3214 -23.6138 12.3373 -29.7445 -9.7541 77.0506 12.0560 -0.0000 44.4155 5.4445 -14.5818 20.7356 33.1476 -0.0000 -26.2537 -9.6625 8.2073 50.7688 -60.2550 -17.5784 -13.8719 -15.6366 0.0000 -5.1704 4.5331 -10.1796 24.1611 32.8623 0.0000 24.3270 -22.7576 12.8552 20.5115
-2.7167 39.7984 9.1677 46.0791 -42.6470 -17.0045 13.3801 23.0156 -18.0732 141.6237 -0.0000 -0.0000 24.7769 -10.2600 26.8835 0.8647 -0.0000 -0.0000 -45.7159 -12.8256 37.8558 12.1762 -0.0000 -0.0000 -5.3422 25.6828 -5.6639 10.6840 -0.0000 -0.0000 18.1266 6.9274 3.9343 41.2723 -23.6549 12.1692 -29.6876 -9.8102 76.9194 11.9738 0.0000 44.5449 5.4229 -14.4409 20.8403 33.1476 -0.0000 -26.2537 -9.5521 8.4205 50.6626 -60.3257 -17.9453 -13.8391 -15.5121 0.0000 -5.3347 4.3581 -9.9595 23.7803 32.8623 0.0000 24.3270 -22.5724 12.6999 20.4141
-2.7414 39.8300 9.1523 46.1185 -42.7990 -17.1233 13.6837 23.3307 -18.2033 141.4764 -0.0000 -0.0000 24.8046 -10.1924 26.8311 0.7661 -0.0000 -0.0000 -45.5895 -12.6228 38.2891 11.7203 -0.0000 -0.0000 -4.9938 25.5255 -6.6199 11.0037 -0.0000 -0.0000 18.0439 7.0189 3.9225 41.2338 -23.6407 12.0222 -29.6245 -9.9100 76.8143 11.9337 0.0000 44.6683 5.4585 -14.4263 20.9847 33.1476 -0.0000 -26.2537 -9.4930 8.5958 50.5926 -60.4389 -18.2882 -13.8442 -15.3970 0.0000 -5.2592 4.2233 -9.9082 23.2266 32.8623 0.0000 24.3270 -22.4677 12.5666 20.3526
-2.7670 39.8636 9.1358 46.1562 -42.9785 -17.2135 13.9603 23.6160 -18.3474 141.3590 -0.0000 -0.0000 24.8154 -10.1758 26.8013 0.7703 -0.0000 -0.0000 -45.5755 -12.2456 38.7287 11.2742 -0.0000 -0.0000 -4.7445 25.1096 -7.7714 11.6954 -0.0000 -0.0000 17.9697 7.1428 3.8523 41.2115 -23.6138 11.9132 -29.5369 -10.0091 76.7438 11.9309 0.0000 44.8500 5.4656 -14.4195 21.0189 33.1476 -0.0000 -26.2537 -9.4385 8.7853 50.5197 -60.5432 -18.6576 -13.8110 -15.2886 0.0000 -5.2843 4.1074 -9.8481 22.7752 32.8623 0.0000 24.3270 -22.4645 12.4663 20.3015
-2.7873 39.8982 9.1149 46.3131 -43.0881 -17.2582 14.1234 23.7879 -18.4202 141.2378 -0.0000 -0.0000 24.8039 -10.2649 26.7738 0.8221 -0.0000 -0.0000 -45.7681 -11.8638 39.1117 10.8476 -0.0000 -0.0000 -4.4057 24.5671 -9.0813 12.4009 -0.0000 -0.0000 17.7979 7.2199 3.8738 41.2581 -23.6056 11.8079 -29.4664 -10.0970 76.7058 11.9337 0.0000 44.9830 5.4413 -14.4207 20.9313 33.1476 -0.0000 -26.2537 -9.3583 8.9202 50.4552 -60.9555 -18.8914 -13.9112 -15.1916 -0.0000 -4.9315 4.1642 -10.2078 22.3345 32.8623 0.0000 24.3270 -22.4428 12.4087 20.2178
-2.7982 39.9243 9.0979 46.5037 -43.0607 -17.2043 14.3401 23.7748 -18.5588 141.0771 -0.0000 -0.0000 24.8059 -10.3507 26.7257 0.7028 -0.0000 -0.0000 -46.0094 -11.4890 39.2912 10.3942 -0.0000 -0.0000 -4.0960 24.0013 -10.2189 12.9760 -0.0000 -0.0000 17.6642 7.1620 3.8866 41.2853 -23.6232 11.7323 -29.4021 -10.1677 76.6542 11.9288 0.0000 45.1432 5.4371 -14.4215 20.9155 33.1476 -0.0000 -26.2537 -9.2937 9.1008 50.3692 -61.2569 -19.1628 -14.0055 -15.1020 0.0000 -4.7140 3.9831 -9.7043 22.4443 32.8623 0.0000 24.3270 -22.4857 12.3611 20.0654
-2.8112 39.9572 9.0729 46.8183 -43.0547 -17.1697 14.3605 23.7531 -18.5280 140.9563 -0.0000 -0.0000 24.7904 -10.4468 26.7195 0.7594 -0.0000 -0.0000 -46.4513 -11.1187 39.5250 9.9704 -0.0000 -0.0000 -3.6504 23.3168 -11.0983 13.1852 -0.0000 -0.0000 17.3895 7.1397 4.0230 41.3682 -23.6710 11.6707 -29.3778 -10.1727 76.6112 11.8640 0.0000 45.2613 5.4486 -14.4675 20.8966 33.1476 -0.0000 -26.2537 -9.2043 9.2336 50.2851 -61.5587 -19.4105 -14.0720 -14.9850 -0.0000 -4.7051 3.9813 -9.6795 22.4867 32.8623 0.0000 24.3270 -22.4968 12.3518 19.9217
-2.8205 39.9891 9.0547 47.0077 -42.9871 -17.1012 14.5157 23.6407 -18.6157 140.8318 -0.0000 -0.0000 24.7774 -10.4835 26.7833 0.6746 -0.0000 -0.0000 -46.7069 -10.7065 39.6247 9.4432 -0.0000 -0.0000 -3.1114 22.7201 -11.8169 13.7410 -0.0000 -0.0000 17.2972 7.0857 4.0087 41.3919 -23.6798 11.6783 -29.3372 -10.2427 76.5545 11.8278 -0.0000 45.4450 5.4461 -14.4579 20.9002 33.1476 -0.0000 -26.2537 -9.1879 9.2951 50.2267 -61.8546 -19.6451 -14.1181 -14.8666 0.0000 -4.6297 4.0168 -9.7339 22.5547 32.8623 0.0000 24.3270 -22.6437 12.3583 19.8371
-2.8291 40.0189 9.0394 47.1905 -42.8728 -16.9956 14.6943 23.4445 -18.7191 140.6945 -0.0000 -0.0000 24.7558 -10.5779 26.8488 0.7707 -0.0000 -0.0000 -46.8926 -10.3025 39.6150 8.8186 -0.0000 -0.0000 -2.5679 22.2960 -12.3005 13.8876 -0.0000 -0.0000 17.2324 6.9781 3.9537 41.3843 -23.6932 11.7189 -29.3005 -10.3498 76.4883 11.7681 0.0000 45.5864 5.4409 -14.4072 20.9474 33.1476 -0.0000 -26.2537 -9.1262 9.4396 50.1668 -62.3592 -19.8817 -14.2168 -14.7195 0.0000 -4.5278 4.1337 -9.9388 22.7210 32.8623 0.0000 24.3270 -22.8017 12.3524 19.7936
-2.8357 40.0441 9.0326 47.1985 -42.7098 -16.8926 15.0551 23.1736 -18.9437 140.5371 -0.0000 -0.0000 24.7297 -10.6802 26.8604 0.8824 -0.0000 -0.0000 -46.7933 -9.9038 39.4754 8.0771 -0.0000 -0.0000 -2.0435 22.1426 -12.5482 13.9585 -0.0000 -0.0000 17.3685 6.8338 3.7524 41.3333 -23.6548 11.7779 -29.2675 -10.4823 76.4423 11.6985 0.0000 45.7088 5.4764 -14.4679 20.9938 33.1476 -0.0000 -26.2537 -9.1078 9.5733 50.1358 -62.7994 -20.1278 -14.2717 -14.5944 0.0000 -4.5107 4.1934 -9.9867 22.9182 32.8623 0.0000 24.3270 -23.0158 12.3727 19.8133
